<svg xmlns="http://www.w3.org/2000/svg" xmlns:xlink="http://www.w3.org/1999/xlink" version="1.1" x="0px" y="0px" viewBox="0 0 100 125" style="enable-background:new 0 0 100 100;" xml:space="preserve"><g><path d="M92.9,54.8c-0.3-0.7-0.7-3.3-0.9-5.1c-0.6-4.7-0.9-6.7-2.4-6.7s-1.9,2.1-2.4,6.7c-0.1,1-0.3,2.2-0.4,3.3   c-0.2-1-0.3-2.3-0.4-3.3c-0.6-4.7-0.9-6.7-2.4-6.7S82,45,81.4,49.7c-0.1,1-0.3,2.2-0.4,3.3c-0.2-1-0.3-2.3-0.4-3.3   c-0.6-4.7-0.9-6.7-2.4-6.7c-1.5,0-1.9,2.1-2.4,6.7c-0.1,1-0.3,2.2-0.4,3.3c-0.2-1-0.3-2.3-0.4-3.3c-0.6-4.7-0.9-6.7-2.4-6.7   s-1.9,2.1-2.4,6.7c-0.1,1-0.3,2.2-0.4,3.3c-0.2-1-0.3-2.3-0.4-3.3c-0.6-4.7-0.9-6.7-2.4-6.7s-1.9,2.1-2.4,6.7   c-0.1,1-0.3,2.2-0.4,3.3c-0.2-1-0.3-2.3-0.4-3.3c-0.6-4.7-0.9-6.7-2.4-6.7c-1.5,0-1.9,2.1-2.4,6.7c-0.1,1-0.3,2.2-0.4,3.3   c-0.2-1-0.3-2.3-0.4-3.3c-0.6-4.7-0.9-6.7-2.4-6.7c-1.5,0-1.9,2.1-2.4,6.7c-0.1,1-0.3,2.2-0.4,3.3c-0.2-1-0.3-2.3-0.4-3.3   c-0.6-4.7-0.9-6.7-2.4-6.7s-1.9,2.1-2.4,6.7c-0.1,1-0.3,2.2-0.4,3.3c-0.2-1-0.3-2.3-0.4-3.3c-0.6-4.7-0.9-6.7-2.4-6.7   s-1.9,2.1-2.4,6.7c-0.1,1-0.3,2.2-0.4,3.3c-0.2-1-0.3-2.3-0.4-3.3c-0.6-4.7-0.9-6.7-2.4-6.7c-1.5,0-1.9,2.1-2.4,6.7   c-0.1,1-0.3,2.2-0.4,3.3c-0.2-1-0.3-2.3-0.4-3.3c-0.6-4.7-0.9-6.7-2.4-6.7s-1.9,2.1-2.4,6.7c-0.1,1-0.3,2.2-0.4,3.3   c-0.2-1-0.3-2.3-0.4-3.3c-0.6-4.7-0.9-6.7-2.4-6.7c-1.5,0-1.9,2.1-2.4,6.7c-0.1,1-0.3,2.2-0.4,3.3c-0.2-1-0.3-2.3-0.4-3.3   c-0.6-4.7-0.9-6.7-2.4-6.7s-1.9,2.1-2.4,6.7c-0.1,1-0.3,2.2-0.4,3.3c-0.2-1-0.3-2.3-0.4-3.3c-0.6-4.7-0.9-6.7-2.4-6.7   c-1.5,0-1.9,2.1-2.4,6.7c-0.1,1-0.3,2.2-0.4,3.3c-0.2-1-0.3-2.3-0.4-3.3c-0.6-4.7-0.9-6.7-2.4-6.7c-0.6,0-1,0.4-1,1   c0,0.4,0.2,0.7,0.6,0.9c0.3,0.7,0.7,3.3,0.9,5.1c0.6,4.7,0.9,6.7,2.4,6.7c1.5,0,1.9-2.1,2.4-6.7c0.1-1,0.3-2.2,0.4-3.3   c0.2,1,0.3,2.3,0.4,3.3c0.6,4.7,0.9,6.7,2.4,6.7c1.5,0,1.9-2.1,2.4-6.7c0.1-1,0.3-2.2,0.4-3.3c0.2,1,0.3,2.3,0.4,3.3   c0.6,4.7,0.9,6.7,2.4,6.7s1.9-2.1,2.4-6.7c0.1-1,0.3-2.2,0.4-3.3c0.2,1,0.3,2.3,0.4,3.3c0.6,4.7,0.9,6.7,2.4,6.7s1.9-2.1,2.4-6.7   c0.1-1,0.3-2.2,0.4-3.3c0.2,1,0.3,2.3,0.4,3.3c0.6,4.7,0.9,6.7,2.4,6.7s1.9-2.1,2.4-6.7c0.1-1,0.3-2.2,0.4-3.3   c0.2,1,0.3,2.3,0.4,3.3c0.6,4.7,0.9,6.7,2.4,6.7c1.5,0,1.9-2.1,2.4-6.7c0.1-1,0.3-2.2,0.4-3.3c0.2,1,0.3,2.3,0.4,3.3   c0.6,4.7,0.9,6.7,2.4,6.7s1.9-2.1,2.4-6.7c0.1-1,0.3-2.2,0.4-3.3c0.2,1,0.3,2.3,0.4,3.3c0.6,4.7,0.9,6.7,2.4,6.7   c1.5,0,1.9-2.1,2.4-6.7c0.1-1,0.3-2.2,0.4-3.3c0.2,1,0.3,2.3,0.4,3.3c0.6,4.7,0.9,6.7,2.4,6.7s1.9-2.1,2.4-6.7   c0.1-1,0.3-2.2,0.4-3.3c0.2,1,0.3,2.3,0.4,3.3c0.6,4.7,0.9,6.7,2.4,6.7c1.5,0,1.9-2.1,2.4-6.7c0.1-1,0.3-2.2,0.4-3.3   c0.2,1,0.3,2.3,0.4,3.3c0.6,4.7,0.9,6.7,2.4,6.7s1.9-2.1,2.4-6.7c0.1-1,0.3-2.2,0.4-3.3c0.2,1,0.3,2.3,0.4,3.3   c0.6,4.7,0.9,6.7,2.4,6.7c1.5,0,1.9-2.1,2.4-6.7c0.1-1,0.3-2.2,0.4-3.3c0.2,1,0.3,2.3,0.4,3.3c0.6,4.7,0.9,6.7,2.4,6.7   s1.9-2.1,2.4-6.7c0.1-1,0.3-2.2,0.4-3.3c0.2,1,0.3,2.3,0.4,3.3c0.6,4.7,0.9,6.7,2.4,6.7s1.9-2.1,2.4-6.7c0.1-1,0.3-2.2,0.4-3.3   c0.2,1,0.3,2.3,0.4,3.3c0.6,4.7,0.9,6.7,2.4,6.7c0.6,0,1-0.4,1-1C93.5,55.3,93.3,54.9,92.9,54.8z"/></g></svg>